<?xml version="1.0" encoding="UTF-8" standalone="no"?>
<!DOCTYPE svg PUBLIC "-//W3C//DTD SVG 1.1//EN"
 "http://www.w3.org/Graphics/SVG/1.1/DTD/svg11.dtd">
<!-- Generated by graphviz version 9.0.0 (20230911.1827)
 -->
<!-- Title: graph Pages: 1 -->
<svg width="486pt" height="188pt"
 viewBox="0.00 0.00 485.51 188.00" xmlns="http://www.w3.org/2000/svg" xmlns:xlink="http://www.w3.org/1999/xlink">
<g id="graph0" class="graph" transform="scale(1 1) rotate(0) translate(4 184)">
<title>graph</title>
<polygon fill="white" stroke="none" points="-4,4 -4,-184 481.51,-184 481.51,4 -4,4"/>
<!-- practicalli.my&#45;app/&#45;main -->
<g id="node1" class="node">
<title>practicalli.my&#45;app/&#45;main</title>
<g id="a_node1"><a xlink:href="./practicalli.my-app__-main-usgs.svg" xlink:title="practicalli.my&#45;app/&#45;main">
<ellipse fill="none" stroke="black" cx="310.17" cy="-162" rx="103.56" ry="18"/>
<text text-anchor="middle" x="310.17" y="-156.95" font-family="Times,serif" font-size="14.00">practicalli.my&#45;app/&#45;main</text>
</a>
</g>
</g>
<!-- practicalli.my&#45;app/greet -->
<g id="node2" class="node">
<title>practicalli.my&#45;app/greet</title>
<g id="a_node2"><a xlink:href="./practicalli.my-app__greet-usgs.svg" xlink:title="practicalli.my&#45;app/greet">
<ellipse fill="none" stroke="black" cx="215.17" cy="-90" rx="99.97" ry="18"/>
<text text-anchor="middle" x="215.17" y="-84.95" font-family="Times,serif" font-size="14.00">practicalli.my&#45;app/greet</text>
</a>
</g>
</g>
<!-- practicalli.my&#45;app/&#45;main&#45;&gt;practicalli.my&#45;app/greet -->
<g id="edge1" class="edge">
<title>practicalli.my&#45;app/&#45;main&#45;&gt;practicalli.my&#45;app/greet</title>
<g id="a_edge1"><a xlink:href="./practicalli.my-app__greet.svg">
<path fill="none" stroke="black" d="M287.17,-144.05C275.15,-135.2 260.25,-124.22 247.13,-114.55"/>
<polygon fill="black" stroke="black" points="249.3,-111.8 239.17,-108.69 245.15,-117.44 249.3,-111.8"/>
</a>
</g>
</g>
<!-- clojure.core/first -->
<g id="node3" class="node">
<title>clojure.core/first</title>
<g id="a_node3"><a xlink:href="./clojure.core__first-usgs.svg" xlink:title="clojure.core/first">
<ellipse fill="none" stroke="black" cx="405.17" cy="-90" rx="72.34" ry="18"/>
<text text-anchor="middle" x="405.17" y="-84.95" font-family="Times,serif" font-size="14.00">clojure.core/first</text>
</a>
</g>
</g>
<!-- practicalli.my&#45;app/&#45;main&#45;&gt;clojure.core/first -->
<g id="edge2" class="edge">
<title>practicalli.my&#45;app/&#45;main&#45;&gt;clojure.core/first</title>
<path fill="none" stroke="black" d="M333.17,-144.05C345.27,-135.13 360.31,-124.06 373.5,-114.34"/>
<polygon fill="black" stroke="black" points="375.52,-117.2 381.49,-108.45 371.37,-111.56 375.52,-117.2"/>
</g>
<!-- clojure.core/or -->
<g id="node4" class="node">
<title>clojure.core/or</title>
<g id="a_node4"><a xlink:href="./clojure.core__or-usgs.svg" xlink:title="clojure.core/or">
<ellipse fill="none" stroke="black" cx="65.17" cy="-18" rx="65.17" ry="18"/>
<text text-anchor="middle" x="65.17" y="-12.95" font-family="Times,serif" font-size="14.00">clojure.core/or</text>
</a>
</g>
</g>
<!-- practicalli.my&#45;app/greet&#45;&gt;clojure.core/or -->
<g id="edge3" class="edge">
<title>practicalli.my&#45;app/greet&#45;&gt;clojure.core/or</title>
<path fill="none" stroke="black" d="M180.38,-72.76C158.69,-62.64 130.63,-49.55 107.63,-38.82"/>
<polygon fill="black" stroke="black" points="109.38,-35.77 98.84,-34.71 106.42,-42.11 109.38,-35.77"/>
</g>
<!-- clojure.core/str -->
<g id="node5" class="node">
<title>clojure.core/str</title>
<g id="a_node5"><a xlink:href="./clojure.core__str-usgs.svg" xlink:title="clojure.core/str">
<ellipse fill="none" stroke="black" cx="215.17" cy="-18" rx="66.71" ry="18"/>
<text text-anchor="middle" x="215.17" y="-12.95" font-family="Times,serif" font-size="14.00">clojure.core/str</text>
</a>
</g>
</g>
<!-- practicalli.my&#45;app/greet&#45;&gt;clojure.core/str -->
<g id="edge4" class="edge">
<title>practicalli.my&#45;app/greet&#45;&gt;clojure.core/str</title>
<path fill="none" stroke="black" d="M215.17,-71.7C215.17,-64.41 215.17,-55.73 215.17,-47.54"/>
<polygon fill="black" stroke="black" points="218.67,-47.62 215.17,-37.62 211.67,-47.62 218.67,-47.62"/>
</g>
<!-- clojure.core/println -->
<g id="node6" class="node">
<title>clojure.core/println</title>
<g id="a_node6"><a xlink:href="./clojure.core__println-usgs.svg" xlink:title="clojure.core/println">
<ellipse fill="none" stroke="black" cx="382.17" cy="-18" rx="82.06" ry="18"/>
<text text-anchor="middle" x="382.17" y="-12.95" font-family="Times,serif" font-size="14.00">clojure.core/println</text>
</a>
</g>
</g>
<!-- practicalli.my&#45;app/greet&#45;&gt;clojure.core/println -->
<g id="edge5" class="edge">
<title>practicalli.my&#45;app/greet&#45;&gt;clojure.core/println</title>
<path fill="none" stroke="black" d="M253.48,-72.94C277.69,-62.79 309.15,-49.61 334.9,-38.81"/>
<polygon fill="black" stroke="black" points="335.92,-42.18 343.79,-35.09 333.21,-35.73 335.92,-42.18"/>
</g>
</g>
</svg>
